<svg width="32" height="32" viewBox="0 0 32 32" fill="none" xmlns="http://www.w3.org/2000/svg">
<path d="M10.6667 24H12.6667V21.3333H15.3333V19.3333H12.6667V16.6667H10.6667V19.3333H8V21.3333H10.6667V24ZM17.3333 23H24V21H17.3333V23ZM17.3333 19.6667H24V17.6667H17.3333V19.6667ZM18.8 14.6L20.6667 12.7333L22.5333 14.6L23.9333 13.2L22.0667 11.2667L23.9333 9.4L22.5333 8L20.6667 9.86667L18.8 8L17.4 9.4L19.2667 11.2667L17.4 13.2L18.8 14.6ZM8.33334 12.2667H15V10.2667H8.33334V12.2667ZM6.66667 28C5.93334 28 5.30534 27.7391 4.78267 27.2173C4.26 26.6956 3.99911 26.0676 4 25.3333V6.66667C4 5.93333 4.26134 5.30578 4.784 4.784C5.30667 4.26222 5.93422 4.00089 6.66667 4H25.3333C26.0667 4 26.6947 4.26133 27.2173 4.784C27.74 5.30667 28.0009 5.93422 28 6.66667V25.3333C28 26.0667 27.7391 26.6947 27.2173 27.2173C26.6956 27.74 26.0676 28.0009 25.3333 28H6.66667ZM6.66667 25.3333H25.3333V6.66667H6.66667V25.3333Z" fill="#2B1CFB"/>
</svg>
